<svg width="64" height="61" viewBox="0 0 64 61" fill="none" xmlns="http://www.w3.org/2000/svg">
<path d="M61.1771 55.2242H61.0643V53.7636C61.0643 52.5361 60.0657 51.5375 58.8381 51.5375H56.1866V49.5235C56.1866 48.5667 55.4344 47.7845 54.4907 47.7316V28.7996C55.4344 28.7468 56.1866 27.9645 56.1866 27.0077V24.9937H58.7591C59.7393 24.9937 60.5368 24.1963 60.5368 23.2161V21.3179H61.8889C62.6846 21.3179 63.332 20.6705 63.332 19.875V18.2344C63.332 17.7039 63.0422 17.2176 62.5753 16.9651L41.2759 5.44679C40.8237 5.20184 40.2595 5.3705 40.0153 5.8225C39.771 6.27437 39.9391 6.83881 40.391 7.08301L61.4716 18.4831V19.4576H1.9317V18.4911L32.1588 2.63116L36.5579 5.01027C37.0101 5.25497 37.5743 5.08643 37.8186 4.63456C38.0629 4.18268 37.8947 3.61824 37.4429 3.37404L33.0436 0.99481C32.5003 0.70095 31.8491 0.696864 31.3019 0.983912L0.84418 16.9609C0.367417 17.2109 0.0713287 17.7006 0.0713287 18.2388V19.8749C0.0713287 20.6705 0.718736 21.3178 1.51437 21.3178H2.86652V23.2161C2.86652 24.1962 3.66389 24.9937 4.64417 24.9937H7.21671V27.0077C7.21671 27.9645 7.96888 28.7468 8.91262 28.7996V41.1243C8.91262 41.6381 9.32908 42.0544 9.84274 42.0544C10.3564 42.0544 10.7729 41.6379 10.7729 41.1243V28.8048H13.7494V47.7265H10.773V45.496C10.773 44.9822 10.3565 44.5659 9.84287 44.5659C9.3292 44.5659 8.91274 44.9822 8.91274 45.496V47.7316C7.969 47.7845 7.21683 48.5667 7.21683 49.5235V51.5375H4.56516C3.33771 51.5375 2.33899 52.5361 2.33899 53.7636V55.2242H2.22617C0.998602 55.2242 0 56.2228 0 57.4504V59.3959C0 60.1543 0.617068 60.7715 1.37543 60.7715H62.0279C62.7862 60.7715 63.4033 60.1544 63.4033 59.3959V57.4504C63.4033 56.2228 62.4047 55.2242 61.1771 55.2242ZM4.72689 23.1335V21.3179H58.6764V23.1335H4.72689ZM54.3262 49.5867V51.5374H47.9579V49.5867H54.3262ZM49.6538 47.7264V28.8047H52.6303V47.7264H49.6538ZM47.9579 26.9445V24.9938H54.3262V26.9445H47.9579ZM41.5304 47.7316V28.7996C42.4741 28.7468 43.2263 27.9645 43.2263 27.0077V24.9937H46.0975V27.0077C46.0975 27.9645 46.8497 28.7468 47.7935 28.7996V47.7316C46.8497 47.7845 46.0975 48.5667 46.0975 49.5235V51.5375H43.2263V49.5235C43.2263 48.5667 42.4741 47.7845 41.5304 47.7316ZM41.3659 49.5867V51.5374H34.9976V49.5867H41.3659ZM36.6935 47.7264V28.8047H39.67V47.7264H36.6935ZM34.9976 26.9445V24.9938H41.3659V26.9445H34.9976ZM28.5701 47.7316V28.7996C29.5139 28.7468 30.266 27.9645 30.266 27.0077V24.9937H33.1373V27.0077C33.1373 27.9645 33.8894 28.7468 34.8332 28.7996V47.7316C33.8894 47.7845 33.1373 48.5667 33.1373 49.5235V51.5375H30.266V49.5235C30.266 48.5667 29.5139 47.7845 28.5701 47.7316ZM27.6399 49.5867H28.4057V51.5374H22.0373V49.5867H22.8031H27.6399ZM23.7333 47.7264V28.8047H26.7098V47.7264H23.7333ZM22.0373 26.9445V24.9938H28.4057V26.9445H22.0373ZM15.6098 47.7316V28.7996C16.5536 28.7468 17.3058 27.9645 17.3058 27.0077V24.9937H20.177V27.0077C20.177 27.9645 20.9292 28.7468 21.8729 28.7996V47.7316C20.9292 47.7845 20.177 48.5667 20.177 49.5235V51.5375H17.3058V49.5235C17.3058 48.5667 16.5536 47.7845 15.6098 47.7316ZM9.07707 26.9445V24.9938H15.4454V26.9445H9.07707ZM9.07707 49.5867H9.84287H14.6797H15.4455V51.5374H9.07707V49.5867ZM4.19935 53.7636C4.19935 53.562 4.36343 53.3978 4.56516 53.3978H58.8381C59.0399 53.3978 59.2039 53.5618 59.2039 53.7636V55.2242H4.19935V53.7636ZM61.5429 58.9111H1.86037V57.4504C1.86037 57.2488 2.02445 57.0846 2.22617 57.0846H61.1771C61.3788 57.0846 61.5429 57.2486 61.5429 57.4504V58.9111Z" fill="url(#paint0_linear_45:379)"/>
<defs>
<linearGradient id="paint0_linear_45:379" x1="-25.0741" y1="-63.4747" x2="-21.7665" y2="60.5282" gradientUnits="userSpaceOnUse">
<stop stop-color="#3D78FF"/>
<stop offset="1" stop-color="#0E358D"/>
</linearGradient>
</defs>
</svg>
