<svg width="66" height="60" viewBox="0 0 66 60" fill="none" xmlns="http://www.w3.org/2000/svg">
<path fill-rule="evenodd" clip-rule="evenodd" d="M1.27738 8.63418C1.98287 8.63418 2.55475 8.0623 2.55475 7.3568V2.55476H6.29453C7.00003 2.55476 7.57191 1.98287 7.57191 1.27738C7.57191 0.571882 7.00003 0 6.29453 0H1.27738C0.571882 0 0 0.571882 0 1.27738V7.3568C0 8.0623 0.571882 8.63418 1.27738 8.63418ZM13.7787 5.48633H7.4346C6.72911 5.48633 6.15723 6.05821 6.15723 6.76371V18.0774C6.15723 18.7829 6.72911 19.3548 7.4346 19.3548C8.1401 19.3548 8.71198 18.7829 8.71198 18.0774V8.04108H12.5014V39.3384H8.71198V29.3149C8.71198 28.6094 8.1401 28.0375 7.4346 28.0375C6.72911 28.0375 6.15723 28.6094 6.15723 29.3149V40.6157C6.15723 41.3212 6.72911 41.8931 7.4346 41.8931H13.7788C14.4843 41.8931 15.0562 41.3212 15.0562 40.6157V6.76371C15.0561 6.05821 14.4842 5.48633 13.7787 5.48633ZM58.0312 50.6767L45.8652 39.5128C46.8236 37.5854 47.3637 35.415 47.3637 33.1203C47.3637 32.1099 47.2587 31.1238 47.0598 30.1716V6.76422C47.0598 6.05872 46.4879 5.48684 45.7824 5.48684H39.4377C38.7322 5.48684 38.1603 6.05872 38.1603 6.76422V19.6859C37.1147 19.2796 36.0106 18.9919 34.8643 18.8395V6.76371C34.8643 6.05821 34.2924 5.48633 33.5869 5.48633C32.8814 5.48633 32.3095 6.05821 32.3095 6.76371V18.7283C30.9514 18.7886 29.6416 19.0376 28.4057 19.45V6.76371C28.4057 6.05821 27.8338 5.48633 27.1283 5.48633C26.4228 5.48633 25.851 6.05821 25.851 6.76371V20.5908C24.365 21.4368 23.0438 22.5394 21.9472 23.838V6.76371C21.9472 6.05821 21.3753 5.48633 20.6698 5.48633C19.9643 5.48633 19.3924 6.05821 19.3924 6.76371V28.2629C18.847 29.7813 18.5488 31.4166 18.5488 33.1203C18.5488 41.0646 25.012 47.5278 32.9561 47.5278C35.2385 47.5278 37.3982 46.9934 39.318 46.0446L50.4889 58.2163C52.5125 60.4928 56.1414 60.6132 58.2589 58.4442C60.3654 56.2866 60.3062 52.6763 58.0312 50.6767ZM44.4691 47.7896L41.5483 44.6855C42.6675 43.8526 43.6669 42.8559 44.5022 41.7384L47.6027 44.6562L44.4691 47.7896ZM40.715 8.04159H44.505V24.5062C43.473 23.1242 42.1922 21.9252 40.715 20.9801V8.04159ZM21.1037 33.1203C21.1037 26.5848 26.4208 21.2678 32.9564 21.2678C39.4083 21.2678 44.8089 26.6706 44.8089 33.1205C44.8089 39.656 39.4918 44.973 32.9562 44.973C26.4207 44.973 21.1037 39.6558 21.1037 33.1203ZM56.4521 56.6383C55.3271 57.7629 53.4455 57.6967 52.3912 56.5108L46.2034 49.6684L49.4813 46.3905L56.325 52.5784C57.4942 53.6477 57.5888 55.5004 56.4521 56.6383ZM53.3341 33.1203C53.3341 33.8258 52.7622 34.3977 52.0567 34.3977C51.3512 34.3977 50.7793 33.8258 50.7793 33.1203V6.76371C50.7793 6.05821 51.3512 5.48633 52.0567 5.48633C52.7622 5.48633 53.3341 6.05821 53.3341 6.76371V33.1203ZM58.0342 41.8931C58.7397 41.8931 59.3116 41.3212 59.3116 40.6157V6.76371C59.3116 6.05821 58.7397 5.48633 58.0342 5.48633C57.3287 5.48633 56.7568 6.05821 56.7568 6.76371V40.6157C56.7568 41.3212 57.3287 41.8931 58.0342 41.8931ZM2.55475 45.117H6.29453C7.00003 45.117 7.57191 45.6889 7.57191 46.3944C7.57191 47.0999 7.00003 47.6718 6.29453 47.6718H1.27738C0.571882 47.6718 0 47.0999 0 46.3944V40.315C0 39.6095 0.571882 39.0376 1.27738 39.0376C1.98287 39.0376 2.55475 39.6095 2.55475 40.315V45.117ZM62.8473 40.315C62.8473 39.6095 63.4191 39.0376 64.1246 39.0376C64.8301 39.0376 65.402 39.6095 65.402 40.315V46.3944C65.402 47.0999 64.8301 47.6718 64.1246 47.6718H59.1075C58.402 47.6718 57.8301 47.0999 57.8301 46.3944C57.8301 45.6889 58.402 45.117 59.1075 45.117H62.8473V40.315ZM64.1246 0H59.1075C58.402 0 57.8301 0.571882 57.8301 1.27738C57.8301 1.98287 58.402 2.55476 59.1075 2.55476H62.8473V7.3568C62.8473 8.0623 63.4191 8.63418 64.1246 8.63418C64.8301 8.63418 65.402 8.0623 65.402 7.3568V1.27738C65.402 0.57201 64.8301 0 64.1246 0ZM7.92364 24.8696C7.27946 25.1364 6.523 24.8211 6.25539 24.1786C5.99135 23.5348 6.30112 22.7769 6.94645 22.5103C7.59127 22.2441 8.3453 22.5587 8.61342 23.2014C8.88091 23.8424 8.56514 24.6041 7.92364 24.8696Z" fill="url(#paint0_linear_45:369)"/>
<defs>
<linearGradient id="paint0_linear_45:369" x1="-25.8646" y1="-64.246" x2="-22.6579" y2="59.7619" gradientUnits="userSpaceOnUse">
<stop stop-color="#3D78FF"/>
<stop offset="1" stop-color="#0E358D"/>
</linearGradient>
</defs>
</svg>
