<svg width="60" height="52" viewBox="0 0 60 52" fill="none" xmlns="http://www.w3.org/2000/svg">
<path fill-rule="evenodd" clip-rule="evenodd" d="M41.9082 10.1797H57.6562C58.9486 10.1797 60 11.2311 60 12.5234V20.1569C60 20.7829 59.7561 21.3716 59.3133 21.8143L58.7109 22.4165V25.3297C58.7109 25.9768 58.1863 26.5016 57.5391 26.5016C56.8918 26.5016 56.3672 25.9768 56.3672 25.3297V24.7598L52.9676 28.1587C52.5252 28.6013 51.9366 28.8453 51.3105 28.8453H48.9395V30.0172C48.9395 30.6643 48.4148 31.1891 47.7676 31.1891H46.5957V33.0337C46.5957 34.9722 45.0186 36.5493 43.0801 36.5493C41.1416 36.5493 39.5645 34.9722 39.5645 33.0337V31.1891H38.3926C37.7454 31.1891 37.2207 30.6643 37.2207 30.0172V28.8453H22.7793V30.0172C22.7793 30.6643 22.2546 31.1891 21.6074 31.1891H20.4355V33.0337C20.4355 34.9722 18.8584 36.5493 16.9199 36.5493C14.9814 36.5493 13.4043 34.9722 13.4043 33.0337V31.1891H12.2324C11.5852 31.1891 11.0605 30.6643 11.0605 30.0172V28.8453H8.68945C8.06332 28.8453 7.4748 28.6013 7.03207 28.1585L3.63281 24.7598V40.1339C8.19012 40.6707 11.8138 44.2945 12.3506 48.8517H47.6494C48.1862 44.2944 51.81 40.6707 56.3672 40.1339V35.9773C56.3672 35.3302 56.8918 34.8055 57.5391 34.8055C58.1863 34.8055 58.7109 35.3302 58.7109 35.9773V48.8516C58.7109 50.1439 57.6595 51.1953 56.3672 51.1953H3.63281C2.34047 51.1953 1.28906 50.1439 1.28906 48.8516V22.4164L0.686719 21.8143C0.243867 21.3716 0 20.783 0 20.157V12.5234C0 11.2311 1.05141 10.1797 2.34375 10.1797H18.0918V6.66406V5.49219C18.0918 2.9075 20.1946 0.804688 22.7793 0.804688H37.2207C39.8054 0.804688 41.9082 2.9075 41.9082 5.49219V6.66406V10.1797ZM56.3672 48.8516V42.4966C53.1035 43.0027 50.5184 45.588 50.0122 48.8516H56.3672ZM3.63281 48.8516H9.98777C9.48164 45.588 6.89648 43.0027 3.63281 42.4966V48.8516ZM37.2207 3.14844H22.7793C21.4869 3.14844 20.4355 4.19984 20.4355 5.49219H39.5645C39.5645 4.19984 38.5131 3.14844 37.2207 3.14844ZM39.5645 7.83594H20.4355V10.1797H39.5645V7.83594ZM16.9199 34.2057C17.5661 34.2057 18.0918 33.68 18.0918 33.0338V31.1891H15.748V33.0338C15.748 33.68 16.2737 34.2057 16.9199 34.2057ZM13.4043 28.8453H20.4355V26.5016H13.4043V28.8453ZM43.0801 34.2057C43.7263 34.2057 44.252 33.68 44.252 33.0338V31.1891H41.9082V33.0338C41.9082 33.68 42.4339 34.2057 43.0801 34.2057ZM39.5645 28.8453H46.5957V26.5016H39.5645V28.8453ZM48.9395 26.5016H51.3105L57.6561 20.1569L57.6562 12.5234H2.34375V20.157L8.68957 26.5013L11.0605 26.5014V25.3297C11.0605 24.6825 11.5852 24.1578 12.2324 24.1578H21.6074C22.2546 24.1578 22.7793 24.6825 22.7793 25.3297V26.5016H37.2207V25.3297C37.2207 24.6825 37.7454 24.1578 38.3926 24.1578H47.7676C48.4148 24.1578 48.9395 24.6825 48.9395 25.3297V26.5016ZM58.7109 30.7C58.7109 31.3472 58.1863 31.8718 57.5391 31.8718C56.8919 31.8718 56.3672 31.3472 56.3672 30.7C56.3672 30.0527 56.8919 29.5281 57.5391 29.5281C58.1863 29.5281 58.7109 30.0527 58.7109 30.7Z" fill="url(#paint0_linear_45:339)"/>
<defs>
<linearGradient id="paint0_linear_45:339" x1="-23.7282" y1="-53.152" x2="-21.2625" y2="51.0067" gradientUnits="userSpaceOnUse">
<stop stop-color="#3D78FF"/>
<stop offset="1" stop-color="#0E358D"/>
</linearGradient>
</defs>
</svg>
