<svg width="60" height="60" viewBox="0 0 60 60" fill="none" xmlns="http://www.w3.org/2000/svg">
<path d="M57.6562 49.4531H56.4844V3.51562C56.4844 1.57711 54.9073 0 52.9688 0C51.0302 0 49.4531 1.57711 49.4531 3.51562V4.93605C49.0863 4.80598 48.6921 4.73449 48.2812 4.73449C46.4415 4.73449 44.9283 6.15539 44.7788 7.95715H38.8931C38.7436 6.15527 37.2304 4.73438 35.3906 4.73438C33.5509 4.73438 32.0377 6.15527 31.8881 7.95703H19.9088C19.7592 6.15527 18.246 4.73438 16.4062 4.73438C15.5065 4.73438 14.685 5.07445 14.0625 5.6325C13.44 5.07457 12.6185 4.73438 11.7188 4.73438C11.3079 4.73438 10.9137 4.80586 10.5469 4.93594V3.51562C10.5469 1.57711 8.96977 0 7.03125 0C5.09273 0 3.51562 1.57711 3.51562 3.51562V49.4531H2.34375C1.05141 49.4531 0 50.5045 0 51.7969V57.6562C0 58.9486 1.05141 60 2.34375 60H34.8047C35.4519 60 35.9766 59.4752 35.9766 58.8281C35.9766 58.181 35.4519 57.6562 34.8047 57.6562H2.34375V51.7969H57.6562V57.6562H45.3516C44.7043 57.6562 44.1797 58.181 44.1797 58.8281C44.1797 59.4752 44.7043 60 45.3516 60H57.6562C58.9486 60 60 58.9486 60 57.6562V51.7969C60 50.5045 58.9486 49.4531 57.6562 49.4531ZM51.7969 3.51562C51.7969 2.86945 52.3226 2.34375 52.9688 2.34375C53.6149 2.34375 54.1406 2.86945 54.1406 3.51562V49.4531H51.7969C51.7969 35.7123 51.7969 17.2017 51.7969 3.51562ZM14.0625 12.6254C14.685 13.1834 15.5065 13.5236 16.4062 13.5236C18.246 13.5236 19.7592 12.1028 19.9088 10.3009H31.8881C32.0377 12.1028 33.5508 13.5236 35.3906 13.5236C37.2305 13.5236 38.7436 12.1028 38.8931 10.3009H44.7788C44.9283 12.1028 46.4414 13.5236 48.2812 13.5236C48.6921 13.5236 49.0863 13.4521 49.4531 13.322V16.1157C49.0863 15.9857 48.6921 15.9142 48.2812 15.9142C47.3815 15.9142 46.56 16.2543 45.9375 16.8123C45.315 16.2544 44.4935 15.9142 43.5938 15.9142C41.754 15.9142 40.2408 17.335 40.0913 19.1368H32.7994C32.6498 17.335 31.1367 15.9142 29.2969 15.9142C27.457 15.9142 25.9439 17.335 25.7944 19.1368H19.9088C19.7592 17.335 18.2461 15.9142 16.4062 15.9142C15.5065 15.9142 14.685 16.2543 14.0625 16.8123C13.44 16.2544 12.6185 15.9142 11.7188 15.9142C11.3079 15.9142 10.9137 15.9857 10.5469 16.1157V13.322C10.9137 13.4521 11.3079 13.5236 11.7188 13.5236C12.6185 13.5234 13.44 13.1834 14.0625 12.6254ZM44.7788 41.4961H29.2838C29.1342 39.6942 27.6211 38.2734 25.7812 38.2734C23.9414 38.2734 22.4283 39.6942 22.2787 41.4961H19.9088C19.7592 39.6942 18.2461 38.2734 16.4062 38.2734C15.5065 38.2734 14.685 38.6135 14.0625 39.1716C13.44 38.6136 12.6185 38.2734 11.7188 38.2734C11.3079 38.2734 10.9137 38.3449 10.5469 38.475V35.6813C10.9137 35.8113 11.3079 35.8828 11.7188 35.8828C12.6185 35.8828 13.44 35.5427 14.0625 34.9847C14.685 35.5426 15.5065 35.8828 16.4062 35.8828C17.306 35.8828 18.1275 35.5427 18.75 34.9847C19.3725 35.5426 20.194 35.8828 21.0938 35.8828C22.9335 35.8828 24.4467 34.462 24.5963 32.6602H36.5756C36.7252 34.462 38.2383 35.8828 40.0781 35.8828C41.918 35.8828 43.4311 34.462 43.5806 32.6602H49.4531V38.475C49.0863 38.3449 48.6921 38.2734 48.2812 38.2734C46.4415 38.2734 44.9283 39.6942 44.7788 41.4961ZM26.9531 41.7891V43.5469C26.9531 44.193 26.4274 44.7188 25.7812 44.7188C25.1351 44.7188 24.6094 44.193 24.6094 43.5469V41.7891C24.6094 41.1429 25.1351 40.6172 25.7812 40.6172C26.4274 40.6172 26.9531 41.1429 26.9531 41.7891ZM15.2344 41.7891C15.2344 41.1429 15.7601 40.6172 16.4062 40.6172C17.0524 40.6172 17.5781 41.1429 17.5781 41.7891V43.5469C17.5781 44.193 17.0524 44.7188 16.4062 44.7188C15.7601 44.7188 15.2344 44.193 15.2344 43.5469V41.7891ZM10.5469 41.7891C10.5469 41.1429 11.0726 40.6172 11.7188 40.6172C12.3649 40.6172 12.8906 41.1429 12.8906 41.7891V43.5469C12.8906 44.193 12.3649 44.7188 11.7188 44.7188C11.0726 44.7188 10.5469 44.193 10.5469 43.5469V41.7891ZM10.5469 19.4297C10.5469 18.7835 11.0726 18.2578 11.7188 18.2578C12.3649 18.2578 12.8906 18.7835 12.8906 19.4297V21.1875C12.8906 21.8337 12.3649 22.3594 11.7188 22.3594C11.0726 22.3594 10.5469 21.8337 10.5469 21.1875V19.4297ZM11.7188 24.7031C12.6185 24.7031 13.44 24.363 14.0625 23.805C14.685 24.3629 15.5065 24.7031 16.4062 24.7031C18.246 24.7031 19.7592 23.2822 19.9088 21.4805H25.7944C25.9439 23.2822 27.457 24.7031 29.2969 24.7031C31.1367 24.7031 32.6498 23.2822 32.7994 21.4805H40.0913C40.2408 23.2822 41.7539 24.7031 43.5938 24.7031C44.4935 24.7031 45.315 24.363 45.9375 23.805C46.56 24.3629 47.3815 24.7031 48.2812 24.7031C48.6921 24.7031 49.0863 24.6316 49.4531 24.5016V30.3164H43.5806C43.4311 28.5147 41.918 27.0938 40.0781 27.0938C38.2383 27.0938 36.7252 28.5147 36.5756 30.3164H24.5963C24.4467 28.5147 22.9336 27.0938 21.0938 27.0938C20.194 27.0938 19.3725 27.4338 18.75 27.9919C18.1275 27.4339 17.306 27.0938 16.4062 27.0938C15.5065 27.0938 14.685 27.4338 14.0625 27.9919C13.44 27.4339 12.6185 27.0938 11.7188 27.0938C11.3079 27.0938 10.9137 27.1652 10.5469 27.2953V24.5016C10.9137 24.6316 11.3079 24.7031 11.7188 24.7031ZM15.2344 19.4297C15.2344 18.7835 15.7601 18.2578 16.4062 18.2578C17.0524 18.2578 17.5781 18.7835 17.5781 19.4297V21.1875C17.5781 21.8337 17.0524 22.3594 16.4062 22.3594C15.7601 22.3594 15.2344 21.8337 15.2344 21.1875V19.4297ZM28.125 21.1875V19.4297C28.125 18.7835 28.6507 18.2578 29.2969 18.2578C29.943 18.2578 30.4688 18.7835 30.4688 19.4297V21.1875C30.4688 21.8337 29.943 22.3594 29.2969 22.3594C28.6507 22.3594 28.125 21.8337 28.125 21.1875ZM44.7656 21.1875C44.7656 21.8337 44.2399 22.3594 43.5938 22.3594C42.9476 22.3594 42.4219 21.8337 42.4219 21.1875V19.4297C42.4219 18.7835 42.9476 18.2578 43.5938 18.2578C44.2399 18.2578 44.7656 18.7835 44.7656 19.4297V21.1875ZM49.4531 21.1875C49.4531 21.8337 48.9274 22.3594 48.2812 22.3594C47.6351 22.3594 47.1094 21.8337 47.1094 21.1875V19.4297C47.1094 18.7835 47.6351 18.2578 48.2812 18.2578C48.9274 18.2578 49.4531 18.7835 49.4531 19.4297V21.1875ZM41.25 30.6094V32.3672C41.25 33.0134 40.7243 33.5391 40.0781 33.5391C39.432 33.5391 38.9062 33.0134 38.9062 32.3672V30.6094C38.9062 29.9632 39.432 29.4375 40.0781 29.4375C40.7243 29.4375 41.25 29.9632 41.25 30.6094ZM19.9219 30.6094C19.9219 29.9632 20.4476 29.4375 21.0938 29.4375C21.7399 29.4375 22.2656 29.9632 22.2656 30.6094V32.3672C22.2656 33.0134 21.7399 33.5391 21.0938 33.5391C20.4476 33.5391 19.9219 33.0134 19.9219 32.3672V30.6094ZM15.2344 30.6094C15.2344 29.9632 15.7601 29.4375 16.4062 29.4375C17.0524 29.4375 17.5781 29.9632 17.5781 30.6094V32.3672C17.5781 33.0134 17.0524 33.5391 16.4062 33.5391C15.7601 33.5391 15.2344 33.0134 15.2344 32.3672V30.6094ZM10.5469 30.6094C10.5469 29.9632 11.0726 29.4375 11.7188 29.4375C12.3649 29.4375 12.8906 29.9632 12.8906 30.6094V32.3672C12.8906 33.0134 12.3649 33.5391 11.7188 33.5391C11.0726 33.5391 10.5469 33.0134 10.5469 32.3672V30.6094ZM47.1094 41.7891C47.1094 41.1429 47.6351 40.6172 48.2812 40.6172C48.9274 40.6172 49.4531 41.1429 49.4531 41.7891V43.5469C49.4531 44.193 48.9274 44.7188 48.2812 44.7188C47.6351 44.7188 47.1094 44.193 47.1094 43.5469V41.7891ZM10.5469 46.8608C10.9137 46.9909 11.3079 47.0624 11.7188 47.0624C12.6185 47.0624 13.44 46.7223 14.0625 46.1643C14.685 46.7222 15.5065 47.0624 16.4062 47.0624C18.246 47.0624 19.7592 45.6415 19.9088 43.8397H22.2787C22.4283 45.6415 23.9414 47.0624 25.7812 47.0624C27.6211 47.0624 29.1342 45.6415 29.2838 43.8397H44.7788C44.9283 45.6415 46.4414 47.0624 48.2812 47.0624C48.6921 47.0624 49.0863 46.9909 49.4531 46.8608V49.4531H10.5469V46.8608ZM47.1094 8.25C47.1094 7.60383 47.6351 7.07812 48.2812 7.07812C48.9274 7.07812 49.4531 7.60383 49.4531 8.25V10.0078C49.4531 10.654 48.9274 11.1797 48.2812 11.1797C47.6351 11.1797 47.1094 10.654 47.1094 10.0078V8.25ZM34.2188 8.25C34.2188 7.60383 34.7445 7.07812 35.3906 7.07812C36.0368 7.07812 36.5625 7.60383 36.5625 8.25V10.0078C36.5625 10.654 36.0368 11.1797 35.3906 11.1797C34.7445 11.1797 34.2188 10.654 34.2188 10.0078V8.25ZM16.4062 7.07812C17.0524 7.07812 17.5781 7.60383 17.5781 8.25V10.0078C17.5781 10.654 17.0524 11.1797 16.4062 11.1797C15.7601 11.1797 15.2344 10.654 15.2344 10.0078V8.25C15.2344 7.60395 15.7601 7.07812 16.4062 7.07812ZM11.7188 7.07812C12.3649 7.07812 12.8906 7.60383 12.8906 8.25V10.0078C12.8906 10.654 12.3649 11.1797 11.7188 11.1797C11.0726 11.1797 10.5469 10.654 10.5469 10.0078V8.25C10.5469 7.60395 11.0726 7.07812 11.7188 7.07812ZM5.85938 3.51562C5.85938 2.86945 6.38508 2.34375 7.03125 2.34375C7.67742 2.34375 8.20312 2.86945 8.20312 3.51562V49.4531H5.85938V3.51562Z" fill="url(#paint0_linear_45:336)"/>
<path d="M40.0781 60C40.7253 60 41.25 59.4753 41.25 58.8281C41.25 58.1809 40.7253 57.6562 40.0781 57.6562C39.4309 57.6562 38.9062 58.1809 38.9062 58.8281C38.9062 59.4753 39.4309 60 40.0781 60Z" fill="url(#paint1_linear_45:336)"/>
<defs>
<linearGradient id="paint0_linear_45:336" x1="-23.7282" y1="-64.2462" x2="-20.2333" y2="59.7465" gradientUnits="userSpaceOnUse">
<stop stop-color="#3D78FF"/>
<stop offset="1" stop-color="#0E358D"/>
</linearGradient>
<linearGradient id="paint1_linear_45:336" x1="37.9794" y1="55.1466" x2="38.1159" y2="59.9901" gradientUnits="userSpaceOnUse">
<stop stop-color="#3D78FF"/>
<stop offset="1" stop-color="#0E358D"/>
</linearGradient>
</defs>
</svg>
