<svg width="68" height="63" viewBox="0 0 68 63" fill="none" xmlns="http://www.w3.org/2000/svg">
<g opacity="0.998">
<path opacity="0.88" fill-rule="evenodd" clip-rule="evenodd" d="M9.97074 5.98703C18.4352 6.83704 26.9316 4.72215 33.9999 0.000167847V56.1274C18.3486 44.2497 9.40367 25.5841 9.97074 5.98703Z" fill="#1741A2"/>
<path opacity="0.998" fill-rule="evenodd" clip-rule="evenodd" d="M58.0281 5.98703C49.5633 6.83704 41.0665 4.72215 33.999 0.000167847V56.1274C49.6499 44.2497 58.5952 25.5841 58.0281 5.98703Z" fill="#1741A2"/>
<path opacity="0.998" fill-rule="evenodd" clip-rule="evenodd" d="M45.2041 23.9783C44.7909 23.4223 44.0129 23.3122 43.4743 23.7371L38.9543 27.2961C38.4132 27.7209 38.308 28.5271 38.7199 29.0869C39.1306 29.6455 39.9086 29.7517 40.4485 29.3307L44.9697 25.7691C45.5083 25.3443 45.6135 24.5368 45.2041 23.9783ZM34.6734 9.66754C34.2628 9.1077 33.4848 8.99766 32.9449 9.42249L28.4249 12.9853C27.885 13.4089 27.7786 14.2163 28.1893 14.7723C28.6002 15.3309 29.3792 15.4409 29.9191 15.0161L34.439 11.4571C34.978 11.0319 35.0853 10.2261 34.6734 9.66754ZM43.6385 21.8541L37.1559 26.9589C37.4274 27.3024 37.9215 27.3648 38.2635 27.0926L43.4693 22.9936C43.8126 22.7223 43.8862 22.2162 43.6385 21.8541ZM29.7549 16.8991L36.2378 11.7943C35.966 11.4507 35.4731 11.3883 35.1277 11.6593L29.924 15.7557C29.5808 16.0283 29.506 16.5366 29.7549 16.8991ZM36.8284 12.5966L43.0491 21.0518L36.5649 26.1565L34.0503 22.7374C31.6198 24.6968 29.2029 26.6777 26.8414 28.7232C24.3871 30.8451 21.9881 33.0406 19.6049 35.2563C19.4042 35.4438 18.979 35.5564 18.4935 35.4902C18.0334 35.4275 17.5634 35.1501 17.1997 34.7291C16.9038 34.2528 16.7674 33.7092 16.8339 33.2358C16.9038 32.7319 17.1212 32.3384 17.3472 32.1884C20.0455 30.404 22.7296 28.5958 25.3642 26.7151C27.8983 24.9031 30.3866 23.0224 32.8604 21.1228L30.3443 17.7014L36.8284 12.5966Z" fill="white"/>
<path opacity="0.998" fill-rule="evenodd" clip-rule="evenodd" d="M37.5255 29.7818H46.5117C47.1899 29.7818 47.7446 30.2975 47.7446 30.9291C47.7446 31.5607 47.1899 32.0728 46.5117 32.0728H37.5255C36.846 32.0728 36.29 31.5607 36.29 30.9291C36.29 30.2975 36.846 29.7818 37.5255 29.7818Z" fill="#1741A2"/>
<path opacity="0.998" fill-rule="evenodd" clip-rule="evenodd" d="M35.2601 33.2184H48.7734C49.4682 33.2184 50.0354 33.7337 50.0354 34.3628V34.3649C50.0354 34.9937 49.4682 35.5093 48.7734 35.5093H35.2601C34.5653 35.5093 33.999 34.9937 33.999 34.3649V34.3628C33.999 33.7337 34.5653 33.2184 35.2601 33.2184Z" fill="white"/>
<path opacity="0.998" fill-rule="evenodd" clip-rule="evenodd" d="M55.7633 51.448C53.7797 53.438 50.8101 54.2708 47.9967 53.6173C47.3724 50.9285 47.9211 48.1164 49.5198 45.8182C51.2237 48.2271 50.7255 51.432 48.4456 53.2871C50.5411 51.8213 53.1593 51.1581 55.7633 51.448Z" fill="#1741A2"/>
<path opacity="0.998" fill-rule="evenodd" clip-rule="evenodd" d="M59.1998 45.6086C57.6936 47.9622 54.9838 49.3531 52.1105 49.2489C50.9347 46.7079 50.8726 43.8207 51.939 41.2362C54.1061 43.296 54.3011 46.5577 52.4747 48.8319C54.203 46.9808 56.6077 45.8208 59.1998 45.6086Z" fill="#1741A2"/>
<path opacity="0.998" fill-rule="evenodd" clip-rule="evenodd" d="M62.6354 41.0263C61.1281 43.3822 58.4184 44.775 55.5461 44.667C54.3691 42.1286 54.3087 39.2388 55.3757 36.6547C57.541 38.7113 57.7359 41.9796 55.9111 44.2552C57.6391 42.3994 60.0429 41.2411 62.6354 41.0263Z" fill="#1741A2"/>
<path opacity="0.998" fill-rule="evenodd" clip-rule="evenodd" d="M39.1052 59.461C41.8348 58.3324 43.2875 55.4338 42.4117 52.6908C40.1946 54.429 38.8128 56.9391 38.5811 59.6507C41.0444 61.0378 44.1089 61.0623 46.5992 59.7185C44.221 58.7332 41.5414 58.6459 39.1052 59.461Z" fill="#1741A2"/>
<path opacity="0.998" fill-rule="evenodd" clip-rule="evenodd" d="M64.9264 34.3032C63.801 36.8772 61.3619 38.6521 58.5409 38.9453C57.0196 36.564 56.5356 33.6713 57.1978 30.9271C59.6154 32.6894 60.2848 35.9434 58.8375 38.4797C60.2519 36.3777 62.4264 34.8797 64.9264 34.3032Z" fill="#1741A2"/>
<path opacity="0.998" fill-rule="evenodd" clip-rule="evenodd" d="M66.0719 28.0444C65.2821 30.7343 63.328 32.7102 60.9582 33.2183C59.5198 30.9158 58.9275 28.0267 59.3154 25.2001C61.4725 26.8055 62.2452 30.047 61.1798 32.7229C62.2441 30.4917 63.9918 28.8147 66.0719 28.0444Z" fill="#1741A2"/>
<path opacity="0.998" fill-rule="evenodd" clip-rule="evenodd" d="M67.2174 22.211C66.6579 24.697 64.6922 26.7154 62.0722 27.4907C60.1536 25.6493 59.1188 23.1723 59.2041 20.618C61.8513 21.7436 63.1317 24.509 62.2612 27.0199C63.1874 24.899 64.9552 23.1747 67.2174 22.211Z" fill="#1741A2"/>
<path opacity="0.998" fill-rule="evenodd" clip-rule="evenodd" d="M64.3748 14.891C62.3019 17.1034 62.0553 20.4251 63.7795 22.9092C65.0652 20.4215 65.2797 17.5328 64.3748 14.891Z" fill="#1741A2"/>
<path opacity="0.998" fill-rule="evenodd" clip-rule="evenodd" d="M12.2354 51.448C14.219 53.438 17.1885 54.2708 20.0019 53.6173C20.6263 50.9285 20.0775 48.1164 18.4789 45.8182C16.7736 48.2271 17.2731 51.432 19.5531 53.2871C17.4579 51.8213 14.8406 51.1581 12.2354 51.448Z" fill="#1741A2"/>
<path opacity="0.998" fill-rule="evenodd" clip-rule="evenodd" d="M8.7998 45.6086C10.306 47.9622 13.016 49.3531 15.8899 49.2489C17.0657 46.7079 17.1262 43.8207 16.0604 41.2362C13.8935 43.296 13.6986 46.5577 15.5245 48.8319C13.7954 46.9808 11.3939 45.8208 8.7998 45.6086Z" fill="#1741A2"/>
<path opacity="0.998" fill-rule="evenodd" clip-rule="evenodd" d="M6.50879 41.0263C7.79994 43.3822 10.122 44.775 12.5845 44.667C13.5936 42.1286 13.6465 39.2388 12.7318 36.6547C10.8742 38.7113 10.7082 41.9796 12.2727 44.2552C10.7912 42.3994 8.73142 41.2411 6.50879 41.0263Z" fill="#1741A2"/>
<path opacity="0.998" fill-rule="evenodd" clip-rule="evenodd" d="M28.8908 59.461C26.1637 58.3324 24.711 55.4338 25.5855 52.6908C27.8053 54.429 29.1859 56.9391 29.4176 59.6507C26.9529 61.0378 23.8882 61.0623 21.3994 59.7185C23.7774 58.7332 26.4571 58.6459 28.8908 59.461Z" fill="#1741A2"/>
<path opacity="0.998" fill-rule="evenodd" clip-rule="evenodd" d="M4.21777 34.3032C5.18219 36.8772 7.27358 38.6521 9.69119 38.9453C10.995 36.564 11.4097 33.6713 10.8425 30.9271C8.7695 32.6894 8.19666 35.9434 9.43815 38.4797C8.22403 36.3777 6.36167 34.8797 4.21777 34.3032Z" fill="#1741A2"/>
<path opacity="0.998" fill-rule="evenodd" clip-rule="evenodd" d="M1.92676 28.0444C2.8482 30.7343 5.12776 32.7102 7.89112 33.2183C9.56908 30.9158 10.2614 28.0267 9.81018 25.2001C7.29243 26.8055 6.39099 30.047 7.63389 32.7229C6.39099 30.4917 4.35349 28.8147 1.92676 28.0444Z" fill="#1741A2"/>
<path opacity="0.998" fill-rule="evenodd" clip-rule="evenodd" d="M0.78125 22.211C1.33933 24.697 3.30447 26.7154 5.92666 27.4907C7.84721 25.6493 8.8799 23.1723 8.79453 20.618C6.14894 21.7436 4.86678 24.509 5.73757 27.0199C4.81144 24.899 3.04266 23.1747 0.78125 22.211Z" fill="#1741A2"/>
<path opacity="0.998" fill-rule="evenodd" clip-rule="evenodd" d="M3.62393 14.891C5.69783 17.1034 5.94317 20.4251 4.21913 22.9092C2.93365 20.4215 2.7194 17.5328 3.62393 14.891Z" fill="#1741A2"/>
<path opacity="0.998" fill-rule="evenodd" clip-rule="evenodd" d="M16.8174 55.2823C18.9491 57.1249 21.9709 57.7455 24.7248 56.9033C25.1407 54.1891 24.3751 51.4306 22.605 49.2548C21.0922 51.7685 21.8354 54.9162 24.253 56.6021C22.0501 55.292 19.391 54.8121 16.8174 55.2823Z" fill="#1741A2"/>
<path opacity="0.998" fill-rule="evenodd" clip-rule="evenodd" d="M33.9998 58.4182C35.2657 58.4182 36.2908 59.4439 36.2908 60.7081C36.2908 61.9712 35.2657 63 33.9998 63C32.7349 63 31.709 61.9712 31.709 60.7081C31.709 59.4439 32.7349 58.4182 33.9998 58.4182Z" fill="#1741A2"/>
<path opacity="0.998" fill-rule="evenodd" clip-rule="evenodd" d="M51.1813 55.2823C49.3546 57.1249 46.7636 57.7455 44.403 56.9033C44.0477 54.1891 44.7039 51.4306 46.2221 49.2548C47.5164 51.7685 46.8794 54.9162 44.8085 56.6021C46.6966 55.292 48.9756 54.8121 51.1813 55.2823Z" fill="#1741A2"/>
</g>
</svg>
